<?xml version="1.0" standalone="no"?>
<!DOCTYPE svg PUBLIC "-//W3C//DTD SVG 20010904//EN"
 "http://www.w3.org/TR/2001/REC-SVG-20010904/DTD/svg10.dtd">
<svg version="1.0" xmlns="http://www.w3.org/2000/svg"
 width="627.000000pt" height="627.000000pt" viewBox="0 0 627.000000 627.000000"
 preserveAspectRatio="xMidYMid meet">
<metadata>
Created by potrace 1.14, written by Peter Selinger 2001-2017
</metadata>
<g transform="translate(0.000000,627.000000) scale(0.100000,-0.100000)"
fill="#000000" stroke="none">
<path d="M1751 4692 c-6 -2 -3 -23 5 -50 8 -26 19 -64 24 -84 l11 -37 95 -3
96 -3 18 -58 c10 -32 18 -59 18 -60 2 -17 17 -65 25 -74 5 -7 7 -13 4 -13 -3
0 -2 -12 3 -27 24 -77 62 -210 65 -225 2 -9 9 -26 15 -37 6 -12 8 -21 6 -21
-3 0 -1 -12 5 -27 6 -16 12 -35 14 -43 2 -8 18 -62 35 -120 17 -58 33 -112 35
-120 2 -8 4 -16 5 -17 2 -2 3 -6 4 -10 2 -5 8 -28 15 -53 7 -25 15 -52 16 -60
2 -8 4 -15 5 -15 1 0 3 -7 5 -15 3 -8 14 -46 25 -85 12 -38 23 -77 25 -85 1
-8 15 -53 31 -100 46 -141 113 -229 224 -294 108 -64 97 -63 1020 -62 l835 1
1 60 c1 33 3 65 4 70 1 6 1 15 0 20 -1 6 -2 34 -1 63 l1 52 -53 1 c-28 0 -399
0 -824 0 -442 0 -785 4 -804 9 -54 16 -98 53 -124 104 -14 28 -25 55 -25 62 0
6 26 16 58 23 31 6 113 22 182 36 69 13 137 27 153 30 15 3 39 7 55 10 15 3
83 16 152 30 69 13 136 26 150 29 14 2 70 14 125 25 55 11 111 22 125 24 14 3
106 21 205 40 229 45 217 42 370 72 72 15 141 28 155 30 14 2 25 4 25 5 0 1
11 3 25 6 50 9 52 11 48 70 -2 30 -1 57 4 60 5 3 6 9 3 14 -5 9 -9 203 -5 225
1 6 2 14 1 19 -4 21 -4 216 0 220 3 3 3 23 1 44 l-4 40 -1065 0 c-586 1 -1069
4 -1073 9 -4 4 -12 26 -18 48 -6 22 -18 65 -27 95 -9 30 -21 73 -27 95 -6 22
-14 44 -18 48 -7 7 -439 16 -459 9z"/>
<path d="M2748 2815 c-92 -30 -169 -135 -170 -234 0 -84 24 -143 82 -195 58
-52 94 -66 175 -67 136 -2 243 99 253 239 4 56 0 76 -18 116 -27 57 -81 113
-130 134 -50 21 -137 24 -192 7z"/>
<path d="M4072 2803 c-244 -116 -162 -486 108 -484 151 0 262 114 255 261 -4
82 -22 124 -77 176 -79 76 -188 94 -286 47z"/>
<path d="M1252 1741 c-67 -23 -111 -59 -153 -127 -47 -77 -48 -218 -1 -294 80
-129 258 -177 390 -105 28 15 59 36 68 46 16 17 15 20 -16 49 l-33 31 -23 -21
c-32 -31 -92 -49 -148 -44 -70 6 -133 51 -160 115 -18 43 -14 134 7 175 51 98
200 130 294 64 l43 -29 30 32 30 32 -37 32 c-72 61 -189 79 -291 44z"/>
<path d="M1860 1750 c-74 -21 -151 -86 -186 -157 -11 -24 -19 -65 -21 -114 -2
-65 2 -84 26 -135 31 -65 72 -105 141 -138 65 -30 187 -29 252 2 109 53 167
151 163 273 -5 160 -128 277 -290 276 -33 0 -71 -3 -85 -7z m213 -127 c89 -84
87 -230 -4 -307 -43 -36 -74 -48 -126 -47 -110 1 -195 88 -195 197 0 101 70
189 159 201 21 3 40 7 41 8 10 10 99 -28 125 -52z"/>
<path d="M5210 1750 c-128 -37 -212 -144 -213 -269 0 -74 3 -90 26 -143 14
-34 102 -129 116 -126 3 1 20 -4 36 -11 88 -38 219 -18 290 43 l40 34 -28 30
-29 30 -49 -30 c-72 -45 -165 -44 -228 3 -34 25 -73 96 -78 142 -4 39 14 104
39 137 62 85 207 100 294 31 l29 -23 27 33 28 33 -20 21 c-39 42 -110 69 -185
71 -38 1 -81 -2 -95 -6z"/>
<path d="M199 1746 c-4 -3 -3 -556 1 -557 22 -4 384 -3 391 2 5 3 8 23 7 45
l-3 39 -150 0 -150 1 0 74 0 75 130 0 130 0 1 41 1 42 -121 0 c-66 0 -127 1
-134 1 -10 1 -12 20 -10 74 l3 72 145 0 145 1 2 45 3 45 -195 0 c-107 1 -196
1 -196 0z"/>
<path d="M2359 1740 c-1 -3 -2 -126 -2 -273 -1 -170 2 -271 8 -275 6 -4 26 -7
45 -7 l35 0 5 215 5 215 93 -187 c52 -104 99 -188 105 -189 7 0 19 -2 28 -4
12 -2 41 47 110 185 52 103 96 187 99 185 3 -2 5 -96 4 -209 0 -139 3 -206 10
-207 6 -1 27 -2 46 -2 l35 -1 0 280 0 279 -72 1 -71 1 -84 -175 -85 -176 -85
176 -86 177 -71 -2 c-39 0 -71 -4 -72 -7z"/>
<path d="M3151 1741 c-6 -4 -9 -118 -8 -281 l2 -274 38 1 c20 0 41 1 45 2 4 1
7 96 7 211 0 116 2 210 5 210 3 0 47 -85 98 -189 95 -194 92 -190 142 -182 3
1 46 82 95 181 50 99 93 180 96 180 4 0 6 -90 5 -201 -1 -114 3 -203 8 -207 5
-3 25 -6 44 -7 24 -1 36 4 41 16 4 14 7 512 2 540 -1 8 -151 6 -151 -2 0 -4
-37 -83 -81 -175 l-81 -169 -85 176 -84 175 -65 0 c-35 0 -68 -2 -73 -5z"/>
<path d="M3929 1736 c-7 -81 -2 -539 6 -545 6 -4 96 -6 200 -6 l190 1 3 45 3
46 -138 -1 c-76 -1 -146 0 -156 2 -16 4 -18 14 -15 76 l3 71 120 1 c66 1 126
2 133 3 7 0 12 16 12 40 l0 39 -112 0 c-62 1 -123 1 -135 1 -21 1 -23 6 -23
64 0 34 4 67 8 73 5 8 54 11 150 10 l143 -1 -3 45 -3 45 -193 1 c-131 0 -192
-3 -193 -10z"/>
<path d="M4450 1468 c0 -153 3 -278 8 -279 36 -5 82 -2 85 6 2 6 3 48 2 95
l-2 85 62 0 63 1 66 -96 67 -95 52 1 c29 1 56 3 60 3 4 1 -7 21 -25 45 -57 76
-72 98 -91 126 l-18 28 39 22 c47 27 71 69 76 135 5 69 -10 114 -51 151 -44
41 -76 47 -250 49 l-143 2 0 -279z m306 176 c19 -9 35 -24 36 -33 8 -90 1
-114 -41 -136 -31 -16 -200 -22 -202 -7 -1 4 -3 49 -4 100 l-2 92 90 0 c61 0
100 -5 123 -16z"/>
<path d="M5619 1740 c-5 -29 -3 -529 2 -540 6 -13 38 -15 201 -14 l193 0 0 45
0 44 -140 1 c-77 1 -146 2 -152 3 -17 1 -16 140 0 142 7 1 66 2 132 3 l120 1
3 42 3 41 -113 0 c-62 0 -123 1 -135 1 -20 1 -21 6 -21 71 1 84 -7 80 153 77
146 -3 145 -4 145 48 l0 42 -195 -1 c-107 0 -195 -3 -196 -6z"/>
<path d="M698 1441 c-8 -58 -8 -58 130 -56 70 1 129 3 132 4 3 0 5 18 5 39
l-1 37 -131 1 -131 1 -4 -26z"/>
</g>
</svg>
